# xmcd
#
# Track frame offsets:
#	150
#	17275
#	31425
#	46200
#	57135
#	71242
#	83930
#	97665
#	112040
#	126340
#	140625
#	156282
#
# Disc length: 2230
#
# Revision: 3
# Processed by: cddbd v1.5.1PL0 Copyright (c) Steve Scherf et al.
# Submitted via: CDex 1.51
# Normalized: r2:TSWAP
#
DISCID=9e08b40c
DTITLE=Various Artist - B.B. King And The Best Of The Blues, Volume 3
DYEAR=1995
DGENRE=Blues
TTITLE0=B.B. King - Three O'clock Blues
TTITLE1=John Lee Hooker - In The Mood
TTITLE2=Muddy Waters - Rock Me
TTITLE3=Roosevelt Sykes - Sweet Home Chicago
TTITLE4=Pee Wee Crayton - Blues After Hours
TTITLE5=Lloyd Glenn - Honky Tonk Train
TTITLE6=B.B. King - Woke Up This Morning
TTITLE7=Elmore James - Dust My Blues
TTITLE8=Junior Parker - Hard Luck Blues
TTITLE9=Charles Brown - Black Night
TTITLE10=Brownie McGhee - Key To The Highway
TTITLE11=Big Joe Turner - Morning Glory
EXTD=YEAR: 1995
EXTT0=
EXTT1=
EXTT2=
EXTT3=
EXTT4=
EXTT5=
EXTT6=
EXTT7=
EXTT8=
EXTT9=
EXTT10=
EXTT11=
PLAYORDER=
